# https://github.com/mikedh/trimesh
v 0.01025242 0.04974691 0.02527500
v 0.01025242 0.05013809 0.02513530
v 0.01024955 0.05013418 0.02513680
v 0.00537068 0.04974691 0.02527500
v 0.01025242 0.01031595 0.02527500
v 0.00537068 0.05016938 0.02504367
v 0.00537068 0.05013418 0.02513680
v 0.01025242 0.05027500 0.02474625
v 0.01024955 0.05027500 0.02474926
v 0.00537068 0.05027500 0.02474926
v 0.00537068 0.01031204 0.02527500
v 0.01024955 0.01031204 0.02527500
v 0.01025242 0.01031204 0.02503015
v 0.01025242 0.05027500 0.01174837
v 0.00537068 0.05027500 0.01462945
v 0.00537068 0.01031204 0.01322947
v 0.01025242 0.01031204 0.00993081
v 0.01025242 0.05025153 0.01124817
v 0.00924989 0.05027500 0.01225008
v 0.00575010 0.05027500 0.01425091
v 0.00537068 0.05025544 0.01425091
v 0.00575105 0.01031204 0.01292304
v 0.00537068 0.04974691 0.01370714
v 0.01025242 0.04974691 0.01056020
v 0.01025242 0.05012635 0.01077199
v 0.00537068 0.05022024 0.01413225
v 0.00537068 0.05001291 0.01379727
v 0.00537068 0.05011462 0.01384684
v 0.00992700 0.05005985 0.01093422
v 0.01025242 0.05012244 0.01076749
f 1 2 3
f 1 3 7
f 1 7 4
f 1 4 11
f 1 11 12
f 1 12 5
f 1 5 13
f 1 13 17
f 1 17 24
f 1 24 30
f 1 30 25
f 1 25 18
f 1 18 14
f 1 14 8
f 1 8 2
f 2 6 7
f 2 7 3
f 2 8 9
f 2 9 10
f 2 10 6
f 4 7 6
f 4 6 10
f 4 10 15
f 4 15 21
f 4 21 26
f 4 26 28
f 4 28 27
f 4 27 23
f 4 23 16
f 4 16 11
f 5 12 13
f 8 14 19
f 8 19 20
f 8 20 15
f 8 15 10
f 8 10 9
f 11 16 22
f 11 22 17
f 11 17 13
f 11 13 12
f 14 18 19
f 15 20 21
f 16 23 22
f 17 22 23
f 17 23 24
f 18 21 20
f 18 20 19
f 18 25 21
f 21 25 26
f 23 27 24
f 24 27 28
f 24 28 29
f 24 29 30
f 25 30 28
f 25 28 26
f 28 30 29

