# https://github.com/mikedh/trimesh
v 0.01289234 0.01031204 0.00604465
v 0.01292264 0.01031204 0.00575078
v 0.02527500 0.01031204 0.00604465
v 0.01342086 0.04974691 0.00604465
v 0.01433365 0.01031204 0.00000406
v 0.01472155 0.04974691 0.00000406
v 0.02527500 0.01031204 0.00000406
v 0.02527500 0.04974691 0.00604465
v 0.01346086 0.05004421 0.00604465
v 0.01479186 0.04994641 0.00000406
v 0.02527500 0.04974691 0.00000406
v 0.02520712 0.04993859 0.00000406
v 0.02521803 0.04990729 0.00604465
v 0.01355177 0.05010288 0.00604465
v 0.01486095 0.05013418 0.00000406
v 0.02513681 0.05013418 0.00000406
v 0.02513681 0.05013418 0.00604465
v 0.01374452 0.05018112 0.00604465
v 0.01505248 0.05020459 0.00000406
v 0.02474890 0.05027500 0.00000406
v 0.02474890 0.05027500 0.00604465
v 0.01395544 0.05024371 0.00604465
v 0.01525007 0.05027500 0.00000406
v 0.01425000 0.05027500 0.00604465
v 0.01425000 0.05027500 0.00574960
f 1 2 5
f 1 5 7
f 1 7 3
f 1 3 8
f 1 8 13
f 1 13 17
f 1 17 21
f 1 21 24
f 1 24 22
f 1 22 18
f 1 18 14
f 1 14 9
f 1 9 4
f 1 4 2
f 2 4 6
f 2 6 5
f 3 7 11
f 3 11 8
f 4 9 6
f 5 6 10
f 5 10 15
f 5 15 19
f 5 19 23
f 5 23 20
f 5 20 16
f 5 16 12
f 5 12 11
f 5 11 7
f 6 9 10
f 8 11 12
f 8 12 13
f 9 14 15
f 9 15 10
f 12 16 17
f 12 17 13
f 14 18 15
f 15 18 19
f 16 20 21
f 16 21 17
f 18 22 23
f 18 23 19
f 20 23 25
f 20 25 24
f 20 24 21
f 22 24 25
f 22 25 23

