# https://github.com/mikedh/trimesh
v -0.02527379 0.01031204 -0.00000406
v -0.01433179 0.01031204 -0.00000406
v -0.02527379 0.01031204 0.00558954
v -0.02527379 0.04974691 -0.00000406
v -0.01394130 0.01031204 0.00144034
v -0.01471985 0.04974691 -0.00000406
v -0.01292460 0.01031204 0.00558954
v -0.02527379 0.04974691 0.00558954
v -0.02520730 0.04993859 -0.00000406
v -0.01292822 0.01031204 0.00542364
v -0.01479118 0.04994641 -0.00000406
v -0.01364633 0.04982906 0.00558954
v -0.01361973 0.04974691 0.00558954
v -0.02518071 0.05001291 0.00558954
v -0.02513718 0.05013418 -0.00000406
v -0.01486130 0.05013418 -0.00000406
v -0.01378535 0.05011853 0.00558954
v -0.02513718 0.05013418 0.00558954
v -0.02501267 0.05018112 0.00558954
v -0.02474912 0.05027500 -0.00000406
v -0.01505231 0.05020459 -0.00000406
v -0.01525057 0.05027500 -0.00000406
v -0.01425079 0.05025153 0.00524952
v -0.01425079 0.05026718 0.00558954
v -0.02474912 0.05027500 0.00558954
v -0.01475008 0.05027500 0.00424973
v -0.01475008 0.05027500 0.00558954
f 1 2 5
f 1 5 10
f 1 10 7
f 1 7 3
f 1 3 8
f 1 8 4
f 1 4 9
f 1 9 15
f 1 15 20
f 1 20 22
f 1 22 21
f 1 21 16
f 1 16 11
f 1 11 6
f 1 6 2
f 2 6 5
f 3 7 13
f 3 13 12
f 3 12 17
f 3 17 24
f 3 24 27
f 3 27 25
f 3 25 19
f 3 19 18
f 3 18 14
f 3 14 8
f 4 8 9
f 5 6 10
f 6 11 12
f 6 12 13
f 6 13 10
f 7 10 13
f 8 14 9
f 9 14 15
f 11 16 12
f 12 16 17
f 14 18 15
f 15 18 19
f 15 19 20
f 16 21 17
f 17 21 22
f 17 22 23
f 17 23 24
f 19 25 20
f 20 25 27
f 20 27 26
f 20 26 22
f 22 26 24
f 22 24 23
f 24 26 27

