# https://github.com/mikedh/trimesh
v 0.00535085 0.01031204 -0.01320982
v 0.00393561 0.01031204 -0.01343894
v 0.00535085 0.01031204 -0.02527500
v 0.00535085 0.04974691 -0.01371529
v 0.00144163 0.01031204 -0.01394204
v -0.00000349 0.04974691 -0.01472033
v 0.00535085 0.04974691 -0.02527500
v -0.00000349 0.01031204 -0.02527500
v 0.00535085 0.05011462 -0.01385229
v -0.00000349 0.05013418 -0.01486087
v -0.00000349 0.01031204 -0.01433296
v -0.00000349 0.04974691 -0.02527500
v -0.00000349 0.04994641 -0.02520414
v 0.00535085 0.05005594 -0.02516517
v 0.00535085 0.05025544 -0.01425029
v 0.00524969 0.05025153 -0.01425029
v -0.00000349 0.05020459 -0.01505219
v -0.00000349 0.05013418 -0.02513682
v 0.00535085 0.05013418 -0.02513682
v 0.00535085 0.05027500 -0.01475103
v 0.00424958 0.05027500 -0.01475103
v -0.00000349 0.05027500 -0.01525060
v -0.00000349 0.05027500 -0.02474945
v 0.00535085 0.05027500 -0.02474945
f 1 2 5
f 1 5 11
f 1 11 8
f 1 8 3
f 1 3 7
f 1 7 14
f 1 14 19
f 1 19 24
f 1 24 20
f 1 20 15
f 1 15 9
f 1 9 4
f 1 4 2
f 2 4 6
f 2 6 5
f 3 8 12
f 3 12 7
f 4 9 10
f 4 10 6
f 5 6 11
f 6 10 17
f 6 17 22
f 6 22 23
f 6 23 18
f 6 18 13
f 6 13 12
f 6 12 8
f 6 8 11
f 7 12 13
f 7 13 14
f 9 15 16
f 9 16 17
f 9 17 10
f 13 18 14
f 14 18 19
f 15 20 21
f 15 21 22
f 15 22 16
f 16 22 17
f 18 23 24
f 18 24 19
f 20 24 23
f 20 23 22
f 20 22 21

