# https://github.com/mikedh/trimesh
v 0.02474856 0.04974691 0.02527500
v 0.02513677 0.04974691 0.02513570
v 0.02509119 0.05009115 0.02509053
v 0.02474856 0.05013418 0.02513570
v 0.01025242 0.04974691 0.02527500
v 0.02474856 0.01031204 0.02527500
v 0.02527500 0.04974691 0.02474982
v 0.02513677 0.01031204 0.02513570
v 0.02515442 0.01031204 0.02508864
v 0.02513677 0.05013418 0.02474982
v 0.02474856 0.05027500 0.02474982
v 0.01025242 0.05013809 0.02513382
v 0.01075092 0.05013418 0.02513570
v 0.01025242 0.01031595 0.02527500
v 0.01031271 0.01031204 0.02527500
v 0.02527500 0.04974691 0.00604653
v 0.02527500 0.01031204 0.02474982
v 0.02513677 0.05013418 0.00604653
v 0.01075092 0.05027500 0.02474982
v 0.02474856 0.05027500 0.00604653
v 0.01025242 0.05027500 0.02474605
v 0.01025242 0.01031204 0.02503029
v 0.02527500 0.01031204 0.00604653
v 0.01425070 0.05027500 0.00604653
v 0.01025242 0.05027500 0.01174825
v 0.01025242 0.01031204 0.00992987
v 0.01289196 0.01031204 0.00604653
v 0.01395660 0.05024371 0.00604653
v 0.01025242 0.05025153 0.01124942
v 0.01025242 0.04974691 0.01056047
v 0.01342134 0.04974691 0.00604653
v 0.01374485 0.05018112 0.00604653
v 0.01025242 0.05012635 0.01077129
v 0.01025242 0.05012244 0.01076753
v 0.01043917 0.05005594 0.01044000
v 0.01346104 0.05004421 0.00604653
v 0.01355221 0.05010288 0.00604653
f 1 2 3
f 1 3 4
f 1 4 13
f 1 13 5
f 1 5 14
f 1 14 15
f 1 15 6
f 1 6 8
f 1 8 2
f 2 7 3
f 2 8 9
f 2 9 7
f 3 7 10
f 3 10 11
f 3 11 4
f 4 12 13
f 4 11 12
f 5 13 12
f 5 12 21
f 5 21 25
f 5 25 29
f 5 29 33
f 5 33 34
f 5 34 30
f 5 30 26
f 5 26 22
f 5 22 14
f 6 15 22
f 6 22 26
f 6 26 27
f 6 27 23
f 6 23 17
f 6 17 9
f 6 9 8
f 7 16 18
f 7 18 10
f 7 9 17
f 7 17 23
f 7 23 16
f 10 18 20
f 10 20 11
f 11 19 12
f 11 20 24
f 11 24 25
f 11 25 21
f 11 21 19
f 12 19 21
f 14 22 15
f 16 23 27
f 16 27 31
f 16 31 36
f 16 36 37
f 16 37 32
f 16 32 28
f 16 28 24
f 16 24 20
f 16 20 18
f 24 28 29
f 24 29 25
f 26 30 27
f 27 30 31
f 28 32 29
f 29 32 33
f 30 34 35
f 30 35 36
f 30 36 31
f 32 37 33
f 33 37 36
f 33 36 34
f 34 36 35

