# https://github.com/mikedh/trimesh
v 0.00537068 0.04974691 0.02527500
v 0.00537068 0.05013418 0.02513703
v -0.00000401 0.04974691 0.02527500
v 0.00537068 0.01031204 0.02527500
v 0.00537068 0.05016938 0.02504387
v -0.00000401 0.05013418 0.02513703
v -0.00000401 0.01031204 0.02527500
v 0.00537068 0.01031204 0.01322810
v -0.00000401 0.05020459 0.02494600
v 0.00537068 0.05027500 0.02474907
v -0.00000401 0.01031204 0.01433303
v 0.00537068 0.04974691 0.01370687
v 0.00425534 0.01031204 0.01343565
v -0.00000401 0.05027500 0.02474907
v 0.00537068 0.05027500 0.01463019
v 0.00176738 0.01031204 0.01394035
v -0.00000401 0.04974691 0.01472099
v 0.00537068 0.05001291 0.01379767
v -0.00000401 0.05027500 0.01525046
v 0.00537068 0.05025544 0.01425049
v 0.00424955 0.05027500 0.01475047
v -0.00000401 0.04994641 0.01479175
v -0.00000401 0.05013418 0.01486132
v 0.00537068 0.05011462 0.01384601
v 0.00524968 0.05025153 0.01425049
v 0.00537068 0.05022024 0.01413139
f 1 2 6
f 1 6 3
f 1 3 7
f 1 7 4
f 1 4 8
f 1 8 12
f 1 12 18
f 1 18 24
f 1 24 26
f 1 26 20
f 1 20 15
f 1 15 10
f 1 10 5
f 1 5 2
f 2 5 6
f 3 6 9
f 3 9 14
f 3 14 19
f 3 19 23
f 3 23 22
f 3 22 17
f 3 17 11
f 3 11 7
f 4 7 11
f 4 11 16
f 4 16 13
f 4 13 8
f 5 9 6
f 5 10 9
f 8 13 12
f 9 10 14
f 10 15 21
f 10 21 19
f 10 19 14
f 11 17 16
f 12 17 18
f 12 13 17
f 13 16 17
f 15 20 21
f 17 22 18
f 18 22 23
f 18 23 24
f 19 21 20
f 19 20 25
f 19 25 26
f 19 26 23
f 20 26 25
f 23 26 24

