# https://github.com/mikedh/trimesh
v 0.01284734 0.01031204 -0.00603085
v 0.02527378 0.01031204 -0.00603085
v 0.01285829 0.01031204 -0.00589203
v 0.01342761 0.04974691 -0.00603085
v 0.02527378 0.01031204 0.00000406
v 0.02527378 0.04974691 -0.00603085
v 0.01292885 0.01031204 -0.00542476
v 0.01472195 0.04974691 0.00000406
v 0.01344221 0.04995424 -0.00603085
v 0.01433389 0.01031204 0.00000406
v 0.02527378 0.04974691 0.00000406
v 0.02519715 0.04996597 -0.00603085
v 0.02520688 0.04993859 0.00000406
v 0.01394218 0.01031204 -0.00144205
v 0.01479251 0.04994641 0.00000406
v 0.01346410 0.05004029 -0.00603085
v 0.02513632 0.05013418 -0.00603085
v 0.02513632 0.05013418 0.00000406
v 0.01486185 0.05013418 0.00000406
v 0.01374390 0.05017721 -0.00603085
v 0.02496723 0.05019677 -0.00603085
v 0.02474948 0.05027500 0.00000406
v 0.01505284 0.05020459 0.00000406
v 0.01525113 0.05027500 0.00000406
v 0.01425117 0.05027500 -0.00574967
v 0.01425117 0.05027500 -0.00603085
v 0.02474948 0.05027500 -0.00603085
f 1 2 5
f 1 5 10
f 1 10 14
f 1 14 7
f 1 7 3
f 1 3 4
f 1 4 9
f 1 9 16
f 1 16 20
f 1 20 26
f 1 26 27
f 1 27 21
f 1 21 17
f 1 17 12
f 1 12 6
f 1 6 2
f 2 6 11
f 2 11 5
f 3 7 4
f 4 8 9
f 4 7 8
f 5 11 13
f 5 13 18
f 5 18 22
f 5 22 24
f 5 24 23
f 5 23 19
f 5 19 15
f 5 15 8
f 5 8 10
f 6 12 13
f 6 13 11
f 7 14 8
f 8 15 16
f 8 16 9
f 8 14 10
f 12 17 18
f 12 18 13
f 15 19 16
f 16 19 20
f 17 21 18
f 18 21 22
f 19 23 20
f 20 23 24
f 20 24 25
f 20 25 26
f 21 27 22
f 22 27 26
f 22 26 25
f 22 25 24

