# https://github.com/mikedh/trimesh
v -0.02527500 0.01031204 -0.00537215
v -0.01322580 0.01031204 -0.00537215
v -0.02527500 0.01031204 -0.00000406
v -0.02527500 0.04974691 -0.00537215
v -0.01343456 0.01031204 -0.00425555
v -0.01370583 0.04974691 -0.00537215
v -0.01433212 0.01031204 -0.00000406
v -0.02527500 0.04974691 -0.00000406
v -0.02513701 0.05013418 -0.00537215
v -0.01393936 0.01031204 -0.00176592
v -0.01472015 0.04974691 -0.00000406
v -0.01384618 0.05011462 -0.00537215
v -0.01486051 0.05013418 -0.00000406
v -0.01479210 0.04994641 -0.00000406
v -0.02513701 0.05013418 -0.00000406
v -0.02504265 0.05016938 -0.00537215
v -0.01413043 0.05022024 -0.00537215
v -0.01505276 0.05020459 -0.00000406
v -0.02474897 0.05027500 -0.00000406
v -0.02474897 0.05027500 -0.00537215
v -0.01425073 0.05025544 -0.00537215
v -0.01425073 0.05025153 -0.00524972
v -0.01525090 0.05027500 -0.00000406
v -0.01462816 0.05027500 -0.00537215
v -0.01475082 0.05027500 -0.00424977
f 1 2 5
f 1 5 10
f 1 10 7
f 1 7 3
f 1 3 8
f 1 8 4
f 1 4 9
f 1 9 16
f 1 16 20
f 1 20 24
f 1 24 21
f 1 21 17
f 1 17 12
f 1 12 6
f 1 6 2
f 2 6 5
f 3 7 11
f 3 11 14
f 3 14 13
f 3 13 18
f 3 18 23
f 3 23 19
f 3 19 15
f 3 15 8
f 4 8 15
f 4 15 9
f 5 6 11
f 5 11 10
f 6 12 13
f 6 13 14
f 6 14 11
f 7 10 11
f 9 15 16
f 12 17 13
f 13 17 18
f 15 19 16
f 16 19 20
f 17 21 22
f 17 22 23
f 17 23 18
f 19 23 25
f 19 25 24
f 19 24 20
f 21 24 25
f 21 25 23
f 21 23 22

