# https://github.com/mikedh/trimesh
v -0.02527500 0.01031204 0.01022891
v -0.00992858 0.01031204 0.01022891
v -0.02527500 0.01031204 0.02474921
v -0.02527500 0.04974691 0.01022891
v -0.00943265 0.01031204 0.01043363
v -0.01058329 0.04974691 0.01022891
v -0.02513583 0.01031204 0.02513656
v -0.02527500 0.04974691 0.02474921
v -0.02514171 0.05011853 0.01022891
v -0.00542599 0.01031204 0.01292855
v -0.01077931 0.05011853 0.01022891
v -0.00525154 0.05011462 0.01388145
v -0.00525154 0.04974691 0.01375626
v -0.02508878 0.01031204 0.02515423
v -0.02513583 0.04974691 0.02513656
v -0.02509074 0.05009115 0.02509090
v -0.02513583 0.05013418 0.02474921
v -0.02513583 0.05013418 0.01022891
v -0.00525154 0.01031204 0.01329969
v -0.01125171 0.05024762 0.01022891
v -0.00525154 0.05025153 0.01425112
v -0.02474967 0.01031204 0.02527500
v -0.02474967 0.04974691 0.02527500
v -0.02474967 0.05013418 0.02513656
v -0.02474967 0.05027500 0.02474921
v -0.02512015 0.05014200 0.01022891
v -0.00525154 0.01031204 0.02527500
v -0.01175157 0.05027109 0.01022891
v -0.01125171 0.05025153 0.01025100
v -0.00575139 0.05027500 0.01425112
v -0.00525154 0.05027500 0.01475040
v -0.00525154 0.04974691 0.02527500
v -0.00525154 0.05013418 0.02513656
v -0.02474967 0.05027500 0.01022891
v -0.00525154 0.05027500 0.02474921
v -0.01225142 0.05027500 0.01022891
v -0.01175157 0.05027500 0.01025100
f 1 2 5
f 1 5 10
f 1 10 19
f 1 19 27
f 1 27 22
f 1 22 14
f 1 14 7
f 1 7 3
f 1 3 8
f 1 8 4
f 1 4 9
f 1 9 18
f 1 18 26
f 1 26 34
f 1 34 36
f 1 36 28
f 1 28 20
f 1 20 11
f 1 11 6
f 1 6 2
f 2 6 5
f 3 7 15
f 3 15 8
f 4 8 9
f 5 6 10
f 6 11 12
f 6 12 13
f 6 13 10
f 7 14 15
f 8 15 16
f 8 16 17
f 8 17 9
f 9 17 18
f 10 13 19
f 11 20 12
f 12 20 21
f 12 21 31
f 12 31 35
f 12 35 33
f 12 33 32
f 12 32 27
f 12 27 19
f 12 19 13
f 14 22 23
f 14 23 15
f 15 23 16
f 16 23 24
f 16 24 25
f 16 25 17
f 17 25 26
f 17 26 18
f 20 28 37
f 20 37 29
f 20 29 21
f 21 29 37
f 21 37 30
f 21 30 31
f 22 27 32
f 22 32 23
f 23 32 33
f 23 33 24
f 24 33 35
f 24 35 25
f 25 34 26
f 25 35 31
f 25 31 30
f 25 30 37
f 25 37 36
f 25 36 34
f 28 36 37

