# https://github.com/mikedh/trimesh
v -0.02527350 0.01031204 0.00558999
v -0.01292589 0.01031204 0.00558999
v -0.02527350 0.01031204 0.01022891
v -0.02527350 0.04974691 0.00558999
v -0.00994377 0.01031204 0.00994281
v -0.01361996 0.04974691 0.00558999
v -0.00992725 0.01031204 0.01022891
v -0.02527350 0.04974691 0.01022891
v -0.02518035 0.05001291 0.00558999
v -0.01058226 0.04974691 0.01022891
v -0.01364700 0.04982906 0.00558999
v -0.02514280 0.05011853 0.01022891
v -0.02513679 0.05013418 0.00558999
v -0.01348175 0.05002465 0.00595648
v -0.01093531 0.05005985 0.00992737
v -0.01077906 0.05011853 0.01022891
v -0.01378672 0.05011853 0.00558999
v -0.02513679 0.05013418 0.01022891
v -0.02512026 0.05014200 0.01022891
v -0.02501209 0.05018112 0.00558999
v -0.01425094 0.05026718 0.00558999
v -0.01125079 0.05024762 0.01022891
v -0.02474919 0.05027500 0.01022891
v -0.02474919 0.05027500 0.00558999
v -0.01475121 0.05027500 0.00558999
v -0.01425094 0.05027500 0.00575030
v -0.01175107 0.05027109 0.01022891
v -0.01225134 0.05027500 0.00924981
v -0.01225134 0.05027500 0.01022891
f 1 2 5
f 1 5 7
f 1 7 3
f 1 3 8
f 1 8 4
f 1 4 9
f 1 9 13
f 1 13 20
f 1 20 24
f 1 24 25
f 1 25 21
f 1 21 17
f 1 17 11
f 1 11 6
f 1 6 2
f 2 6 5
f 3 7 10
f 3 10 16
f 3 16 22
f 3 22 27
f 3 27 29
f 3 29 23
f 3 23 19
f 3 19 18
f 3 18 12
f 3 12 8
f 4 8 9
f 5 6 10
f 5 10 7
f 6 11 10
f 8 12 9
f 9 12 13
f 10 11 14
f 10 14 15
f 10 15 16
f 11 17 14
f 12 18 13
f 13 18 19
f 13 19 20
f 14 17 16
f 14 16 15
f 16 17 21
f 16 21 22
f 19 23 20
f 20 23 24
f 21 25 26
f 21 26 22
f 22 26 28
f 22 28 27
f 23 29 28
f 23 28 26
f 23 26 25
f 23 25 24
f 27 28 29

