# https://github.com/mikedh/trimesh
v -0.02527500 0.01031204 -0.02474959
v -0.02513750 0.01031204 -0.02513665
v -0.02527500 0.01031204 -0.00939458
v -0.02527500 0.04974691 -0.02474959
v -0.02474967 0.01031204 -0.02527500
v -0.02513750 0.04974691 -0.02513665
v -0.01074905 0.01031204 -0.00939458
v -0.02527500 0.04974691 -0.00939458
v -0.02513750 0.05013418 -0.02474959
v -0.02509166 0.05009115 -0.02509157
v -0.00726564 0.01031204 -0.02527500
v -0.02474967 0.04974691 -0.02527500
v -0.00826166 0.01031204 -0.01145580
v -0.01133079 0.04974691 -0.00939458
v -0.02513750 0.05013418 -0.00939458
v -0.02502467 0.05017721 -0.00939458
v -0.02474967 0.05027500 -0.02474959
v -0.02474967 0.05013418 -0.02513665
v -0.00726564 0.01031204 -0.01229832
v -0.00726564 0.04974691 -0.02527500
v -0.00726564 0.04974691 -0.01280352
v -0.01141365 0.05006377 -0.00939458
v -0.02474967 0.05027500 -0.00939458
v -0.00726564 0.05027500 -0.02474959
v -0.00726564 0.05013418 -0.02513665
v -0.00726564 0.05006768 -0.01289524
v -0.01141894 0.05007550 -0.00939458
v -0.01225101 0.05027500 -0.00939458
v -0.00726564 0.05027500 -0.01373465
v -0.00726564 0.05008332 -0.01290301
v -0.01158641 0.05014983 -0.00939458
v -0.00775043 0.05027500 -0.01325121
v -0.01210645 0.05027109 -0.00939458
v -0.00726564 0.05022024 -0.01325121
v -0.00726564 0.05021633 -0.01323411
v -0.01173625 0.05018503 -0.00939458
f 1 2 5
f 1 5 11
f 1 11 19
f 1 19 13
f 1 13 7
f 1 7 3
f 1 3 8
f 1 8 4
f 1 4 6
f 1 6 2
f 2 6 12
f 2 12 5
f 3 7 14
f 3 14 22
f 3 22 27
f 3 27 31
f 3 31 36
f 3 36 33
f 3 33 28
f 3 28 23
f 3 23 16
f 3 16 15
f 3 15 8
f 4 8 15
f 4 15 9
f 4 9 10
f 4 10 6
f 5 12 20
f 5 20 11
f 6 10 12
f 7 13 14
f 9 15 16
f 9 16 17
f 9 17 10
f 10 17 18
f 10 18 12
f 11 20 25
f 11 25 24
f 11 24 29
f 11 29 34
f 11 34 35
f 11 35 30
f 11 30 26
f 11 26 21
f 11 21 19
f 12 18 25
f 12 25 20
f 13 19 21
f 13 21 14
f 14 21 22
f 16 23 17
f 17 23 28
f 17 28 32
f 17 32 29
f 17 29 24
f 17 24 25
f 17 25 18
f 21 26 22
f 22 26 27
f 26 30 27
f 27 30 31
f 28 33 32
f 29 32 34
f 30 35 31
f 31 35 36
f 32 33 34
f 33 36 35
f 33 35 34

