# https://github.com/mikedh/trimesh
v -0.00726564 0.01031204 -0.01229713
v -0.00726564 0.01031204 -0.02527373
v -0.00675386 0.01031204 -0.01243560
v -0.00000401 0.04974691 -0.01472096
v -0.00726564 0.04974691 -0.01280400
v -0.00000401 0.01031204 -0.02527373
v -0.00726564 0.04974691 -0.02527373
v -0.00000401 0.01031204 -0.01433350
v -0.00000401 0.04993859 -0.01478955
v -0.00726564 0.05006768 -0.01289420
v -0.00000401 0.04974691 -0.02527373
v -0.00726564 0.04975864 -0.02526992
v -0.00000401 0.05013418 -0.01486069
v -0.00726564 0.05008332 -0.01290182
v -0.00000401 0.04994641 -0.02520513
v -0.00726564 0.05013418 -0.02513653
v -0.00000401 0.05020459 -0.01505252
v -0.00726564 0.05021633 -0.01323465
v -0.00000401 0.05013418 -0.02513653
v -0.00726564 0.05027500 -0.02474908
v -0.00000401 0.05027500 -0.01525069
v -0.00724929 0.05022024 -0.01325116
v -0.00726564 0.05022024 -0.01325116
v -0.00000401 0.05027500 -0.02474908
v -0.00726564 0.05027500 -0.01373517
v -0.00674960 0.05027109 -0.01375041
f 1 2 6
f 1 6 8
f 1 8 3
f 1 3 4
f 1 4 5
f 1 5 10
f 1 10 14
f 1 14 18
f 1 18 23
f 1 23 25
f 1 25 20
f 1 20 16
f 1 16 12
f 1 12 7
f 1 7 2
f 2 7 11
f 2 11 6
f 3 8 4
f 4 9 10
f 4 10 5
f 4 8 6
f 4 6 11
f 4 11 15
f 4 15 19
f 4 19 24
f 4 24 21
f 4 21 17
f 4 17 13
f 4 13 9
f 7 12 11
f 9 13 10
f 10 13 14
f 11 12 15
f 12 16 15
f 13 17 18
f 13 18 14
f 15 16 19
f 16 20 24
f 16 24 19
f 17 21 18
f 18 21 22
f 18 22 23
f 20 25 21
f 20 21 24
f 21 25 26
f 21 26 22
f 22 26 25
f 22 25 23

