# https://github.com/mikedh/trimesh
v -0.02474558 0.00025140 -0.02527005
v -0.02474558 -0.00013511 -0.02513154
v -0.02508698 -0.00009056 -0.02508206
v -0.02513646 0.00025140 -0.02513154
v -0.02474558 0.01031204 -0.02527005
v 0.02474310 0.00025140 -0.02527005
v -0.00000124 -0.00013511 -0.02513154
v -0.02474558 -0.00027397 -0.02474071
v -0.02513646 -0.00013511 -0.02474071
v -0.02527500 0.00025140 -0.02474071
v -0.02513646 0.01031204 -0.02513154
v 0.02474310 0.01031204 -0.02527005
v 0.02508451 0.01031204 -0.02514638
v 0.02512904 0.00025140 -0.02512659
v 0.02508451 -0.00009056 -0.02508206
v 0.02474310 -0.00013511 -0.02512659
v 0.02474310 -0.00027397 -0.02474071
v -0.02474558 -0.00027397 0.02474071
v -0.02513646 -0.00013511 0.02474071
v -0.02527500 0.01031204 -0.02474071
v -0.02527500 0.00025140 0.02474071
v 0.02512904 0.01031204 -0.02512659
v 0.02527253 0.00025140 -0.02474071
v 0.02512904 -0.00013511 -0.02474071
v 0.02474310 -0.00027397 0.02474071
v -0.02474558 -0.00013511 0.02512659
v -0.02508698 -0.00009056 0.02508206
v -0.00000124 -0.00013511 0.02513154
v -0.02527500 0.01031204 0.02474071
v -0.02513646 0.00025140 0.02512659
v 0.02527253 0.01031204 -0.02474071
v 0.02527253 0.00025140 0.02474071
v 0.02512904 -0.00013511 0.02474071
v 0.02508451 -0.00009056 0.02508206
v 0.02474310 -0.00013511 0.02513154
v -0.02474558 0.00025140 0.02527005
v -0.02513646 0.01031204 0.02512659
v 0.02527253 0.01031204 0.02474071
v 0.02512904 0.00025140 0.02513154
v 0.02474310 0.00025140 0.02527005
v -0.02474558 0.01031204 0.02527005
v 0.02512904 0.01031204 0.02513154
v 0.02474310 0.01031204 0.02527005
f 1 2 3
f 1 3 4
f 1 4 11
f 1 11 5
f 1 5 12
f 1 12 6
f 1 6 7
f 1 7 2
f 2 7 17
f 2 17 8
f 2 8 3
f 3 9 10
f 3 10 4
f 3 8 9
f 4 10 20
f 4 20 11
f 5 11 20
f 5 20 29
f 5 29 37
f 5 37 41
f 5 41 43
f 5 43 42
f 5 42 38
f 5 38 31
f 5 31 22
f 5 22 13
f 5 13 12
f 6 12 13
f 6 13 14
f 6 14 15
f 6 15 16
f 6 16 7
f 7 16 17
f 8 18 19
f 8 19 9
f 8 17 25
f 8 25 18
f 9 19 21
f 9 21 10
f 10 21 29
f 10 29 20
f 13 22 14
f 14 22 31
f 14 31 23
f 14 23 15
f 15 23 24
f 15 24 17
f 15 17 16
f 17 24 33
f 17 33 25
f 18 26 27
f 18 27 19
f 18 25 35
f 18 35 28
f 18 28 26
f 19 27 21
f 21 27 30
f 21 30 37
f 21 37 29
f 23 31 38
f 23 38 32
f 23 32 33
f 23 33 24
f 25 33 34
f 25 34 35
f 26 36 27
f 26 28 36
f 27 36 30
f 28 35 40
f 28 40 36
f 30 36 41
f 30 41 37
f 32 38 42
f 32 42 39
f 32 39 34
f 32 34 33
f 34 39 40
f 34 40 35
f 36 40 43
f 36 43 41
f 39 42 43
f 39 43 40

