# https://github.com/mikedh/trimesh
v -0.00000401 0.04974691 0.02527383
v -0.00000401 0.04993859 0.02520701
v -0.00524958 0.04974691 0.02527383
v -0.00000401 0.01031204 0.02527383
v -0.00000401 0.05013418 0.02513667
v -0.00524958 0.05013418 0.02513667
v -0.00524958 0.01031595 0.02527383
v -0.00518745 0.01031204 0.02527383
v -0.00000401 0.01031204 0.01433287
v -0.00000401 0.05020459 0.02494676
v -0.00474997 0.05027500 0.02474982
v -0.00524958 0.05027500 0.02474864
v -0.00524958 0.01031204 0.02481664
v -0.00144120 0.01031204 0.01394249
v -0.00000401 0.04974691 0.01472089
v -0.00000401 0.05027500 0.02474982
v -0.00524958 0.05027500 0.01524960
v -0.00524958 0.01031204 0.01329891
v -0.00393459 0.01031204 0.01343841
v -0.00524958 0.04974691 0.01375610
v -0.00524958 0.05011462 0.01388036
v -0.00000401 0.04994641 0.01479240
v -0.00000401 0.05027500 0.01525077
v -0.00474997 0.05027500 0.01475020
v -0.00524958 0.05027109 0.01475020
v -0.00440544 0.01031204 0.01337628
v -0.00524958 0.05025153 0.01425081
v -0.00000401 0.05013418 0.01486157
v -0.00424986 0.05027500 0.01475020
f 1 2 3
f 1 3 7
f 1 7 8
f 1 8 4
f 1 4 9
f 1 9 15
f 1 15 22
f 1 22 28
f 1 28 23
f 1 23 16
f 1 16 10
f 1 10 5
f 1 5 2
f 2 5 6
f 2 6 3
f 3 6 12
f 3 12 17
f 3 17 25
f 3 25 27
f 3 27 21
f 3 21 20
f 3 20 18
f 3 18 13
f 3 13 7
f 4 8 13
f 4 13 18
f 4 18 26
f 4 26 19
f 4 19 14
f 4 14 9
f 5 10 6
f 6 10 11
f 6 11 12
f 7 13 8
f 9 14 15
f 10 16 11
f 11 16 23
f 11 23 29
f 11 29 24
f 11 24 17
f 11 17 12
f 14 19 15
f 15 20 21
f 15 21 22
f 15 19 20
f 17 24 25
f 18 20 26
f 19 26 20
f 21 27 28
f 21 28 22
f 23 28 27
f 23 27 29
f 24 29 27
f 24 27 25

