# https://github.com/mikedh/trimesh
v -0.02527500 0.01031204 -0.00939458
v -0.01074869 0.01031204 -0.00939458
v -0.02527500 0.01031204 -0.00537255
v -0.02527500 0.04974691 -0.00939458
v -0.01292280 0.01031204 -0.00575132
v -0.01133025 0.04974691 -0.00939458
v -0.01370628 0.04974691 -0.00537255
v -0.01322709 0.01031204 -0.00537255
v -0.02527500 0.04974691 -0.00537255
v -0.02517689 0.05002465 -0.00939458
v -0.01141414 0.05006377 -0.00939458
v -0.01141699 0.05007159 -0.00939458
v -0.01384563 0.05011462 -0.00537255
v -0.02513708 0.05013418 -0.00537255
v -0.02513708 0.05013418 -0.00939458
v -0.01141983 0.05007550 -0.00939458
v -0.01158478 0.05014983 -0.00939458
v -0.01413001 0.05022024 -0.00537255
v -0.02504181 0.05016938 -0.00537255
v -0.02502474 0.05017721 -0.00939458
v -0.01210662 0.05027109 -0.00939458
v -0.01425087 0.05025544 -0.00537255
v -0.02474889 0.05027500 -0.00537255
v -0.02474889 0.05027500 -0.00939458
v -0.01225023 0.05027500 -0.00939458
v -0.01225023 0.05027500 -0.00924968
v -0.01425087 0.05027500 -0.00575014
v -0.01462910 0.05027500 -0.00537255
f 1 2 5
f 1 5 8
f 1 8 3
f 1 3 9
f 1 9 4
f 1 4 10
f 1 10 15
f 1 15 20
f 1 20 24
f 1 24 25
f 1 25 21
f 1 21 17
f 1 17 16
f 1 16 12
f 1 12 11
f 1 11 6
f 1 6 2
f 2 6 7
f 2 7 5
f 3 8 7
f 3 7 13
f 3 13 18
f 3 18 22
f 3 22 28
f 3 28 23
f 3 23 19
f 3 19 14
f 3 14 9
f 4 9 10
f 5 7 8
f 6 11 7
f 7 11 12
f 7 12 13
f 9 14 10
f 10 14 15
f 12 16 13
f 13 16 17
f 13 17 18
f 14 19 20
f 14 20 15
f 17 21 22
f 17 22 18
f 19 23 20
f 20 23 24
f 21 25 26
f 21 26 27
f 21 27 22
f 22 27 28
f 23 28 27
f 23 27 26
f 23 26 25
f 23 25 24

