# https://github.com/mikedh/trimesh
v 0.00926343 0.01031204 -0.01085147
v 0.02527500 0.01031204 -0.01085147
v 0.00943270 0.01031204 -0.01043335
v 0.00994364 0.04974691 -0.01085147
v 0.02527500 0.01031204 -0.00603085
v 0.02527500 0.04974691 -0.01085147
v 0.01244192 0.01031204 -0.00643906
v 0.01342775 0.04974691 -0.00603085
v 0.01344186 0.04995424 -0.00603085
v 0.01346380 0.05004029 -0.00603085
v 0.01008783 0.05009115 -0.01085147
v 0.01284785 0.01031204 -0.00603085
v 0.02527500 0.04974691 -0.00603085
v 0.02513708 0.05013418 -0.01085147
v 0.01374435 0.05017721 -0.00603085
v 0.01026180 0.05014983 -0.01085147
v 0.02513708 0.05013418 -0.00603085
v 0.02474996 0.05027500 -0.01085147
v 0.02496624 0.05019677 -0.00603085
v 0.01375062 0.05022415 -0.00625030
v 0.01425059 0.05027500 -0.00603085
v 0.01075080 0.05024762 -0.01074954
v 0.01075080 0.05025153 -0.01085147
v 0.01125077 0.05027500 -0.01085147
v 0.02474996 0.05027500 -0.00603085
v 0.01125077 0.05027500 -0.01074954
f 1 2 5
f 1 5 12
f 1 12 7
f 1 7 3
f 1 3 4
f 1 4 11
f 1 11 16
f 1 16 23
f 1 23 24
f 1 24 18
f 1 18 14
f 1 14 6
f 1 6 2
f 2 6 13
f 2 13 5
f 3 7 8
f 3 8 4
f 4 8 9
f 4 9 10
f 4 10 11
f 5 13 17
f 5 17 19
f 5 19 25
f 5 25 21
f 5 21 15
f 5 15 10
f 5 10 9
f 5 9 8
f 5 8 12
f 6 14 17
f 6 17 13
f 7 12 8
f 10 15 11
f 11 15 16
f 14 18 19
f 14 19 17
f 15 20 16
f 15 21 20
f 16 20 22
f 16 22 23
f 18 24 26
f 18 26 21
f 18 21 25
f 18 25 19
f 20 21 22
f 21 26 23
f 21 23 22
f 23 26 24

