# https://github.com/mikedh/trimesh
v 0.00535085 0.01031204 -0.02527500
v 0.02474842 0.01031204 -0.02527500
v 0.00535085 0.01031204 -0.01321108
v 0.00535085 0.04974691 -0.02527500
v 0.02513653 0.01031204 -0.02513664
v 0.02474842 0.04974691 -0.02527500
v 0.00542497 0.01031204 -0.01292872
v 0.00535085 0.04974691 -0.01371510
v 0.00535085 0.05005594 -0.02516488
v 0.02527500 0.01031204 -0.02474981
v 0.02513653 0.04974691 -0.02513664
v 0.02474842 0.05013418 -0.02513664
v 0.02508972 0.05009115 -0.02509147
v 0.00890038 0.01031204 -0.01090418
v 0.00994378 0.04974691 -0.01085194
v 0.00992818 0.05005985 -0.01093524
v 0.00535085 0.05011462 -0.01385204
v 0.00535085 0.05013418 -0.02513664
v 0.02527500 0.01031204 -0.01085194
v 0.02527500 0.04974691 -0.02474981
v 0.02474842 0.05027500 -0.02474981
v 0.02513653 0.05013418 -0.02474981
v 0.00926508 0.01031204 -0.01085194
v 0.01008811 0.05009115 -0.01085194
v 0.01026168 0.05014983 -0.01085194
v 0.00535085 0.05025544 -0.01425017
v 0.00535085 0.05027500 -0.02474981
v 0.02527500 0.04974691 -0.01085194
v 0.02474842 0.05027500 -0.01085194
v 0.02513653 0.05013418 -0.01085194
v 0.01075120 0.05025153 -0.01085194
v 0.00575066 0.05027500 -0.01425017
v 0.00535085 0.05027500 -0.01475136
v 0.01125048 0.05027500 -0.01085194
f 1 2 5
f 1 5 10
f 1 10 19
f 1 19 23
f 1 23 14
f 1 14 7
f 1 7 3
f 1 3 8
f 1 8 17
f 1 17 26
f 1 26 33
f 1 33 27
f 1 27 18
f 1 18 9
f 1 9 4
f 1 4 6
f 1 6 2
f 2 6 11
f 2 11 5
f 3 7 8
f 4 9 6
f 5 11 20
f 5 20 10
f 6 9 12
f 6 12 13
f 6 13 11
f 7 14 15
f 7 15 8
f 8 15 16
f 8 16 17
f 9 18 12
f 10 20 28
f 10 28 19
f 11 13 20
f 12 18 27
f 12 27 21
f 12 21 13
f 13 21 22
f 13 22 20
f 14 23 15
f 15 24 16
f 15 23 19
f 15 19 28
f 15 28 30
f 15 30 29
f 15 29 34
f 15 34 31
f 15 31 25
f 15 25 24
f 16 24 17
f 17 24 25
f 17 25 26
f 20 22 30
f 20 30 28
f 21 27 33
f 21 33 32
f 21 32 34
f 21 34 29
f 21 29 30
f 21 30 22
f 25 31 26
f 26 31 32
f 26 32 33
f 31 34 32

